# xmcd CD database file
#
# Track frame offsets:
#	150
#	24076
#	34649
#	46241
#	60484
#	73401
#	88055
#	109303
#	130286
#	147743
#	165600
#	190489
#	211182
#	229572
#	260501
#
# Disc length: 3730 seconds
#
# Revision: 0
# Processed by: cddbd v1.5.2PL0 Copyright (c) Steve Scherf et al.
# Submitted via: CDex 1.51
#
DISCID=d80e900f
DTITLE=Sampler - wicked jazz sounds Vol. 4 CD1/2
DYEAR=2008
DGENRE=Jazz
TTITLE0=01 - Etta James - All The Way Down
TTITLE1=02 - George Benson - Summertime
TTITLE2=03 - Gilberto Gil - Roda
TTITLE3=04 - Tuomo - Don't Take It Too Hard
TTITLE4=05 - DJ Shadow - This Time
TTITLE5=06 - Belleruche - The Itch
TTITLE6=07 - Ben Westbeech and Die - Get Closer
TTITLE7=08 - Mark Murphy - Stolen Moments (Phil H edit)
TTITLE8=09 - Plumstead Radical Club - The Coast Is Clear
TTITLE9=10 - The Blackbyrds - Blackbyrds Theme
TTITLE10=11 - Monsieur Dubois - S'Amuse (Wicked Jazz Sounds remix by Leroy Rey)
TTITLE11=12 - Meikbar - Sunshine
TTITLE12=13 - Spiritual South and Sweetalker Sleepwalker - Hullabaloo
TTITLE13=14 - Middlewood Sessions - Fallback (Spiritual South Remix)
TTITLE14=15 - The Apples - Killing
EXTD=YEAR: 2008
EXTT0=
EXTT1=
EXTT2=
EXTT3=
EXTT4=
EXTT5=
EXTT6=
EXTT7=
EXTT8=
EXTT9=
EXTT10=
EXTT11=
EXTT12=
EXTT13=
EXTT14=
PLAYORDER=
